<?xml version="1.0" encoding="UTF-8"?><svg id="_レイヤー_2" xmlns="http://www.w3.org/2000/svg" viewBox="0 0 95.57 95.57"><defs><style>.cls-1{fill:#fff;}.cls-2{fill:#070001;}</style></defs><g id="_レイヤー_1-2"><circle class="cls-1" cx="47.79" cy="47.79" r="47.79"/><polygon class="cls-2" points="82.9 33.87 73.08 33.87 63.96 48.37 53.22 33.38 65.13 14.6 55.73 14.6 48.6 27.28 41.66 14.6 31.94 14.6 43.85 33.69 33.29 48.19 24.39 33.87 14.67 33.87 28.01 55.45 15.38 72.79 24.83 72.79 32.36 62.49 38.73 72.79 48.6 72.79 37.67 55.22 48.6 40.25 59.43 55.58 48.6 72.79 58.58 72.79 64.69 63.02 71.71 72.97 81.59 72.97 69.24 55.73 82.9 33.87"/></g></svg>