<?xml version="1.0" encoding="UTF-8"?><svg xmlns="http://www.w3.org/2000/svg" viewBox="0 0 106.89 91.78"><defs><style>.cls-1{fill:#ffffff;}</style></defs><g><path class="cls-1" d="M1.34,68.47c.77-.79,1.76-1.19,2.96-1.19,1.6,0,2.77.53,3.51,1.59.41.6.63,1.2.66,1.79h-2.01c-.13-.46-.29-.81-.49-1.04-.36-.42-.89-.63-1.59-.63s-1.28.3-1.7.88c-.41.59-.62,1.42-.62,2.5s.22,1.89.65,2.42c.44.54.99.81,1.66.81s1.21-.23,1.58-.69c.2-.25.37-.62.5-1.12h2c-.17,1.05-.61,1.9-1.32,2.56-.71.66-1.61.98-2.72.98-1.37,0-2.44-.44-3.23-1.33-.78-.89-1.17-2.11-1.17-3.67,0-1.68.45-2.97,1.34-3.88"/><path class="cls-1" d="M15.23,76.21c-.6.74-1.51,1.11-2.73,1.11s-2.13-.37-2.73-1.11c-.6-.74-.9-1.63-.9-2.67s.3-1.92.9-2.67c.6-.75,1.51-1.13,2.73-1.13s2.13.38,2.73,1.13c.6.75.9,1.64.9,2.67s-.3,1.93-.9,2.67M13.75,75.18c.29-.39.44-.94.44-1.65s-.15-1.26-.44-1.65c-.29-.38-.71-.58-1.25-.58s-.96.19-1.26.58c-.29.38-.44.93-.44,1.65s.15,1.26.44,1.65c.29.39.71.58,1.26.58s.96-.19,1.25-.58"/><path class="cls-1" d="M22.83,70.38c.46.39.7,1.02.7,1.92v4.79h-1.9v-4.32c0-.38-.05-.66-.15-.86-.18-.37-.53-.55-1.04-.55-.63,0-1.06.27-1.29.8-.12.28-.18.64-.18,1.08v3.85h-1.86v-7.1h1.8v1.04c.24-.37.46-.63.68-.79.38-.29.86-.43,1.45-.43.73,0,1.33.19,1.8.58"/><path class="cls-1" d="M24.11,71.36v-1.32h.99v-1.99h1.84v1.99h1.15v1.32h-1.15v3.76c0,.29.04.47.11.54.08.07.3.11.68.11.06,0,.12,0,.18,0,.06,0,.12,0,.18-.01v1.39l-.88.03c-.88.03-1.48-.12-1.8-.46-.21-.21-.31-.54-.31-.98v-4.38h-.99Z"/><path class="cls-1" d="M33.37,70.11c.5.22.91.57,1.23,1.05.29.42.48.91.57,1.47.05.33.07.8.06,1.41h-5.18c.03.71.28,1.21.74,1.5.28.18.63.27,1.03.27.42,0,.77-.11,1.03-.33.14-.12.27-.28.38-.49h1.9c-.05.42-.28.85-.69,1.28-.64.69-1.53,1.04-2.68,1.04-.95,0-1.78-.29-2.51-.88-.72-.58-1.08-1.53-1.08-2.85,0-1.23.33-2.18.98-2.83.65-.66,1.5-.99,2.54-.99.62,0,1.18.11,1.67.33M30.59,71.72c-.26.27-.43.64-.5,1.1h3.2c-.03-.49-.2-.87-.49-1.12-.3-.26-.66-.38-1.1-.38-.48,0-.85.14-1.11.4"/><path class="cls-1" d="M44.75,69.99c.3.12.58.33.83.64.2.25.33.55.4.91.04.24.07.59.07,1.05v4.48h-1.92v-4.53c0-.27-.04-.49-.13-.66-.16-.33-.47-.5-.91-.5-.51,0-.87.21-1.06.64-.1.23-.15.5-.15.82v4.23h-1.87v-4.23c0-.42-.04-.73-.13-.92-.16-.34-.46-.52-.92-.52-.53,0-.89.17-1.07.52-.1.2-.15.49-.15.87v4.28h-1.89v-7.1h1.81v1.04c.23-.37.45-.63.65-.79.36-.28.83-.42,1.4-.42.54,0,.98.12,1.32.36.27.22.48.51.61.85.24-.42.55-.72.91-.92.38-.2.81-.29,1.28-.29.31,0,.62.06.93.18"/><path class="cls-1" d="M53.21,70.73c.58.61.87,1.51.87,2.7,0,1.25-.28,2.21-.85,2.87-.57.66-1.3.99-2.19.99-.57,0-1.04-.14-1.42-.43-.2-.16-.41-.38-.6-.69v3.71h-1.84v-9.91h1.78v1.05c.2-.31.42-.55.64-.73.42-.32.91-.48,1.48-.48.84,0,1.54.31,2.12.92M51.78,72.07c-.25-.42-.66-.63-1.23-.63-.68,0-1.15.32-1.4.96-.13.34-.2.77-.2,1.29,0,.83.22,1.41.67,1.74.26.2.57.29.94.29.52,0,.92-.2,1.2-.6.27-.4.41-.93.41-1.6,0-.55-.13-1.03-.38-1.46"/><path class="cls-1" d="M60.87,76.21c-.6.74-1.51,1.11-2.73,1.11s-2.13-.37-2.73-1.11c-.6-.74-.9-1.63-.9-2.67s.3-1.92.9-2.67c.6-.75,1.51-1.13,2.73-1.13s2.13.38,2.73,1.13c.6.75.9,1.64.9,2.67s-.3,1.93-.9,2.67M59.39,75.18c.29-.39.44-.94.44-1.65s-.15-1.26-.44-1.65c-.29-.38-.71-.58-1.25-.58s-.96.19-1.26.58c-.29.38-.44.93-.44,1.65s.15,1.26.44,1.65c.29.39.71.58,1.26.58s.96-.19,1.25-.58"/><path class="cls-1" d="M66.55,69.8s.08,0,.16.01v1.91c-.12-.01-.22-.02-.31-.03-.09,0-.17,0-.22,0-.75,0-1.25.24-1.51.73-.14.27-.22.7-.22,1.27v3.4h-1.87v-7.11h1.77v1.24c.29-.47.54-.8.75-.97.35-.29.8-.44,1.36-.44.04,0,.06,0,.09,0"/><path class="cls-1" d="M70.15,72.75c.35-.05.59-.1.74-.16.27-.11.4-.29.4-.53,0-.29-.1-.49-.31-.6-.2-.11-.51-.17-.9-.17-.45,0-.76.11-.95.33-.13.16-.22.38-.26.65h-1.79c.04-.62.21-1.13.52-1.53.49-.63,1.34-.94,2.54-.94.78,0,1.48.15,2.08.46s.91.89.91,1.75v3.26c0,.23,0,.5.01.82.01.24.05.41.11.5s.15.16.27.21v.27h-2.02c-.06-.14-.1-.28-.12-.4-.02-.13-.04-.27-.05-.43-.26.28-.56.52-.89.71-.4.23-.86.35-1.36.35-.65,0-1.18-.18-1.61-.55-.42-.37-.63-.89-.63-1.56,0-.87.34-1.51,1.02-1.9.37-.21.92-.37,1.64-.46l.64-.08ZM71.29,73.62c-.12.07-.24.14-.36.18-.12.05-.29.09-.5.13l-.42.08c-.4.07-.68.15-.86.26-.29.17-.44.43-.44.79,0,.32.09.55.27.69.18.14.4.21.65.21.41,0,.78-.12,1.12-.35.34-.24.52-.66.53-1.29v-.69Z"/><path class="cls-1" d="M78.11,69.8s.08,0,.16.01v1.91c-.12-.01-.22-.02-.31-.03-.09,0-.17,0-.22,0-.75,0-1.25.24-1.51.73-.14.27-.21.7-.21,1.27v3.4h-1.87v-7.11h1.77v1.24c.29-.47.54-.8.75-.97.35-.29.8-.44,1.36-.44.03,0,.06,0,.09,0"/><path class="cls-1" d="M79.56,78.44h.23c.18.02.36.02.52,0,.17-.02.3-.07.42-.15.11-.08.21-.23.3-.46.09-.24.13-.38.12-.43l-2.61-7.43h2.07l1.55,5.25,1.47-5.25h1.98l-2.44,7c-.47,1.35-.84,2.18-1.12,2.51-.28.32-.82.49-1.65.49-.17,0-.3,0-.4,0-.1,0-.25-.01-.45-.02v-1.49Z"/><path class="cls-1" d="M91.99,67.46h2.27l3.4,9.62h-2.18l-.63-1.98h-3.54l-.65,1.98h-2.1l3.43-9.62ZM91.86,73.45h2.46l-1.21-3.78-1.25,3.78Z"/><path class="cls-1" d="M102.2,69.8s.08,0,.16.01v1.91c-.12-.01-.22-.02-.31-.03-.09,0-.16,0-.22,0-.75,0-1.25.24-1.51.73-.14.27-.21.7-.21,1.27v3.4h-1.87v-7.11h1.77v1.24c.29-.47.54-.8.75-.97.35-.29.8-.44,1.36-.44.03,0,.06,0,.09,0"/><path class="cls-1" d="M102.9,71.36v-1.32h.99v-1.99h1.84v1.99h1.15v1.32h-1.15v3.76c0,.29.04.47.11.54s.3.11.68.11c.06,0,.12,0,.18,0,.06,0,.12,0,.19-.01v1.39l-.88.03c-.88.03-1.48-.12-1.8-.46-.21-.21-.31-.54-.31-.98v-4.38h-.99Z"/><polygon class="cls-1" points="86.59 19.27 76.76 19.27 67.65 33.76 56.91 18.77 68.82 0 59.42 0 52.29 12.67 45.35 0 35.63 0 47.54 19.09 36.98 33.59 28.08 19.27 18.36 19.27 31.7 40.85 19.07 58.19 28.52 58.19 36.05 47.89 42.41 58.19 52.29 58.19 41.36 40.62 52.29 25.65 63.11 40.98 52.29 58.19 62.27 58.19 68.37 48.42 75.4 58.37 85.27 58.37 72.93 41.13 86.59 19.27"/><polygon class="cls-1" points="19.43 81.94 26.29 81.94 26.29 83.62 21.43 83.62 21.43 85.84 25.69 85.84 25.69 87.51 21.43 87.51 21.43 91.54 19.43 91.54 19.43 81.94"/><path class="cls-1" d="M32.67,90.67c-.6.74-1.51,1.11-2.73,1.11s-2.13-.37-2.73-1.11c-.6-.74-.9-1.63-.9-2.68s.3-1.91.9-2.67c.6-.75,1.51-1.13,2.73-1.13s2.13.38,2.73,1.13c.6.75.9,1.64.9,2.67s-.3,1.93-.9,2.68M31.18,89.64c.29-.39.44-.94.44-1.65s-.14-1.26-.44-1.65c-.29-.38-.71-.58-1.25-.58s-.96.19-1.26.58c-.29.38-.44.93-.44,1.65s.15,1.26.44,1.65c.29.39.71.58,1.26.58s.96-.19,1.25-.58"/><path class="cls-1" d="M36.26,84.43v4.29c0,.4.05.71.14.91.17.36.5.54.99.54.63,0,1.07-.26,1.3-.77.12-.28.18-.65.18-1.1v-3.87h1.89v7.11h-1.81v-1s-.06.09-.13.2c-.07.11-.15.2-.25.29-.29.26-.57.44-.84.53-.27.1-.59.14-.95.14-1.05,0-1.76-.38-2.12-1.14-.2-.42-.31-1.03-.31-1.85v-4.29h1.91Z"/><path class="cls-1" d="M47.56,84.84c.47.39.7,1.02.7,1.92v4.79h-1.91v-4.32c0-.37-.05-.66-.15-.86-.18-.37-.53-.55-1.04-.55-.63,0-1.05.27-1.29.8-.12.28-.18.64-.18,1.08v3.85h-1.86v-7.1h1.8v1.04c.24-.37.46-.63.68-.79.38-.29.86-.43,1.45-.43.73,0,1.33.19,1.8.58"/><path class="cls-1" d="M53.36,84.54c.33.19.61.45.82.79v-3.39h1.89v9.6h-1.81v-.99c-.26.42-.57.73-.91.92-.34.19-.76.29-1.27.29-.83,0-1.53-.34-2.1-1.01-.57-.67-.85-1.54-.85-2.59,0-1.21.28-2.17.84-2.86.56-.7,1.31-1.04,2.24-1.04.43,0,.81.1,1.15.29M53.82,89.61c.27-.39.41-.9.41-1.52,0-.87-.22-1.49-.66-1.87-.27-.23-.58-.34-.94-.34-.54,0-.94.21-1.2.62-.25.41-.38.92-.38,1.53,0,.66.13,1.18.39,1.58.26.39.65.59,1.18.59s.93-.2,1.2-.59"/><path class="cls-1" d="M60.19,87.21c.35-.04.59-.1.74-.16.27-.11.4-.29.4-.53,0-.29-.1-.49-.31-.6-.2-.11-.51-.17-.9-.17-.45,0-.76.11-.95.33-.13.16-.22.38-.26.65h-1.79c.04-.62.21-1.13.52-1.53.49-.63,1.34-.94,2.54-.94.78,0,1.48.15,2.08.46.61.31.91.89.91,1.75v3.26c0,.23,0,.5.01.82.01.24.05.41.11.5.06.09.15.16.27.21v.27h-2.02c-.06-.14-.1-.28-.12-.4-.02-.12-.04-.27-.05-.43-.26.28-.56.52-.89.71-.4.23-.86.35-1.37.35-.65,0-1.18-.18-1.6-.55-.42-.37-.63-.89-.63-1.56,0-.88.34-1.51,1.02-1.9.37-.21.92-.37,1.64-.46l.64-.08ZM61.33,88.08c-.12.07-.24.13-.36.18-.12.04-.29.09-.5.13l-.42.08c-.4.07-.68.15-.86.25-.29.17-.44.43-.44.79,0,.32.09.55.27.69.18.14.4.21.65.21.41,0,.78-.12,1.12-.35.34-.24.52-.66.53-1.29v-.69Z"/><path class="cls-1" d="M63.65,85.82v-1.32h.99v-1.98h1.84v1.98h1.16v1.32h-1.16v3.76c0,.29.04.47.11.54.07.07.3.11.68.11.06,0,.12,0,.18,0,.06,0,.12,0,.19-.01v1.39l-.88.03c-.88.03-1.48-.12-1.8-.46-.21-.21-.31-.54-.31-.99v-4.38h-.99Z"/><path class="cls-1" d="M70.22,83.58h-1.89v-1.72h1.89v1.72ZM68.33,84.43h1.89v7.11h-1.89v-7.11Z"/><path class="cls-1" d="M77.55,90.67c-.6.74-1.51,1.11-2.73,1.11s-2.13-.37-2.73-1.11c-.6-.74-.9-1.63-.9-2.68s.3-1.91.9-2.67c.6-.75,1.51-1.13,2.73-1.13s2.13.38,2.73,1.13c.6.75.9,1.64.9,2.67s-.3,1.93-.9,2.68M76.06,89.64c.29-.39.44-.94.44-1.65s-.15-1.26-.44-1.65c-.29-.38-.71-.58-1.25-.58s-.96.19-1.26.58c-.29.38-.44.93-.44,1.65s.15,1.26.44,1.65c.29.39.71.58,1.26.58s.96-.19,1.25-.58"/><path class="cls-1" d="M84.92,84.84c.46.39.7,1.02.7,1.92v4.79h-1.9v-4.32c0-.37-.05-.66-.15-.86-.18-.37-.53-.55-1.04-.55-.63,0-1.06.27-1.29.8-.12.28-.18.64-.18,1.08v3.85h-1.86v-7.1h1.8v1.04c.24-.37.46-.63.68-.79.38-.29.86-.43,1.45-.43.73,0,1.33.19,1.8.58"/></g></svg>
