<?xml version="1.0" encoding="UTF-8"?><svg id="_レイヤー_1" xmlns="http://www.w3.org/2000/svg" viewBox="0 0 461.18 79.15"><rect x="3.71" y="-.15" width="7.42" height="7.42"/><rect x="3.71" y="11.95" width="7.42" height="7.42"/><rect x="3.71" y="24.05" width="7.42" height="7.42"/><rect x="3.71" y="36.14" width="7.42" height="7.42"/><rect x="3.71" y="48.24" width="7.42" height="7.42"/><rect x="3.71" y="60.33" width="7.42" height="7.42"/><rect x="3.71" y="72.43" width="7.42" height="7.42"/><rect x="54.61" y="-.35" width="7.42" height="7.42"/><rect x="54.61" y="11.74" width="7.42" height="7.42"/><rect x="54.61" y="23.84" width="7.42" height="7.42"/><rect x="54.61" y="35.94" width="7.42" height="7.42"/><rect x="54.61" y="48.03" width="7.42" height="7.42"/><rect x="54.61" y="60.13" width="7.42" height="7.42"/><rect x="54.61" y="72.22" width="7.42" height="7.42"/><rect x="17.07" y="36.14" width="7.42" height="7.42"/><rect x="29.16" y="36.14" width="7.42" height="7.42"/><rect x="41.26" y="36.14" width="7.42" height="7.42"/><rect x="17.07" y="-.15" width="7.42" height="7.42"/><rect x="29.16" y="-.15" width="7.42" height="7.42"/><rect x="41.26" y="-.15" width="7.42" height="7.42"/><rect x="17.07" y="72.22" width="7.42" height="7.42"/><rect x="29.16" y="72.22" width="7.42" height="7.42"/><rect x="41.26" y="72.22" width="7.42" height="7.42"/><rect x="79.61" y="-.14" width="7.42" height="7.42"/><rect x="79.61" y="11.96" width="7.42" height="7.42"/><rect x="79.61" y="24.05" width="7.42" height="7.42"/><rect x="79.61" y="36.15" width="7.42" height="7.42"/><rect x="79.61" y="48.24" width="7.42" height="7.42"/><rect x="79.61" y="60.34" width="7.42" height="7.42"/><rect x="118.13" y="-.34" width="7.42" height="7.42"/><rect x="118.13" y="11.75" width="7.42" height="7.42"/><rect x="118.13" y="23.85" width="7.42" height="7.42"/><rect x="118.13" y="35.94" width="7.42" height="7.42"/><rect x="118.13" y="48.04" width="7.42" height="7.42"/><rect x="118.13" y="60.13" width="7.42" height="7.42"/><rect x="118.13" y="72.23" width="7.42" height="7.42"/><rect x="92.67" y="48.24" width="7.42" height="7.42"/><rect x="104.77" y="48.24" width="7.42" height="7.42"/><rect x="92.67" y="24.05" width="7.42" height="7.42"/><rect x="104.77" y="24.05" width="7.42" height="7.42"/><rect x="92.67" y="-.14" width="7.42" height="7.42"/><rect x="104.77" y="-.14" width="7.42" height="7.42"/><rect x="68.35" y="72.23" width="7.42" height="7.42"/><rect x="159.89" y="-.03" width="7.42" height="7.42"/><rect x="159.89" y="12.06" width="7.42" height="7.42"/><rect x="159.89" y="24.16" width="7.42" height="7.42"/><rect x="159.89" y="36.25" width="7.42" height="7.42"/><rect x="159.89" y="48.35" width="7.42" height="7.42"/><rect x="135.57" y="12.06" width="7.42" height="7.42"/><rect x="147.07" y="24.16" width="7.42" height="7.42"/><rect x="173.98" y="24.16" width="7.42" height="7.42"/><rect x="184.72" y="12.06" width="7.42" height="7.42"/><rect x="135.57" y="72.33" width="7.42" height="7.42"/><rect x="147.27" y="60.63" width="7.42" height="7.42"/><rect x="173.98" y="60.63" width="7.42" height="7.42"/><rect x="185.2" y="71.85" width="7.42" height="7.42"/><rect x="226.96" y=".17" width="7.42" height="7.42"/><rect x="226.96" y="12.27" width="7.42" height="7.42"/><rect x="226.96" y="24.36" width="7.42" height="7.42"/><rect x="226.96" y="36.46" width="7.42" height="7.42"/><rect x="226.96" y="48.55" width="7.42" height="7.42"/><rect x="202.64" y="24.36" width="7.42" height="7.42"/><rect x="214.14" y="24.36" width="7.42" height="7.42"/><rect x="202.64" y="60.84" width="7.42" height="7.42"/><rect x="214.14" y="48.41" width="7.42" height="7.42"/><rect x="214.14" y="36.46" width="7.42" height="7.42"/><rect x="250.09" y="24.48" width="7.42" height="7.42"/><rect x="238.59" y="24.48" width="7.42" height="7.42"/><rect x="250.09" y="60.96" width="7.42" height="7.42"/><rect x="238.59" y="48.53" width="7.42" height="7.42"/><rect x="238.59" y="36.57" width="7.42" height="7.42"/><rect x="226.96" y="60.84" width="7.42" height="7.42"/><rect x="226.96" y="72.4" width="7.42" height="7.42"/><rect x="291.86" y="-.25" width="7.42" height="7.42"/><rect x="291.86" y="11.85" width="7.42" height="7.42"/><rect x="291.86" y="23.94" width="7.42" height="7.42"/><rect x="291.86" y="36.04" width="7.42" height="7.42"/><rect x="291.86" y="48.13" width="7.42" height="7.42"/><rect x="267.54" y="23.94" width="7.42" height="7.42"/><rect x="279.04" y="23.94" width="7.42" height="7.42"/><rect x="267.54" y="60.51" width="7.42" height="7.42"/><rect x="279.04" y="48.41" width="7.42" height="7.42"/><rect x="317.16" y="24.44" width="7.42" height="7.42"/><rect x="305.66" y="24.44" width="7.42" height="7.42"/><rect x="317.16" y="60.13" width="7.42" height="7.42"/><rect x="305.66" y="48.13" width="7.42" height="7.42"/><rect x="291.86" y="60.42" width="7.42" height="7.42"/><rect x="291.86" y="71.98" width="7.42" height="7.42"/><rect x="423.67" width="7.42" height="7.42"/><rect x="423.67" y="12.1" width="7.42" height="7.42"/><rect x="423.67" y="24.19" width="7.42" height="7.42"/><rect x="423.67" y="36.29" width="7.42" height="7.42"/><rect x="423.67" y="48.38" width="7.42" height="7.42"/><rect x="399.35" y="24.19" width="7.42" height="7.42"/><rect x="410.85" y="24.19" width="7.42" height="7.42"/><rect x="412.27" y="72.23" width="7.42" height="7.42"/><rect x="400.76" y="72.23" width="7.42" height="7.42"/><rect x="447.43" y="24.68" width="7.42" height="7.42"/><rect x="435.93" y="24.68" width="7.42" height="7.42"/><rect x="447.43" y="72.23" width="7.42" height="7.42"/><rect x="435.93" y="72.23" width="7.42" height="7.42"/><rect x="423.67" y="60.67" width="7.42" height="7.42"/><rect x="423.67" y="72.23" width="7.42" height="7.42"/><rect x="357.87" y="-.25" width="7.42" height="7.42"/><rect x="357.87" y="11.85" width="7.42" height="7.42"/><rect x="357.87" y="23.94" width="7.42" height="7.42"/><rect x="357.87" y="36.04" width="7.42" height="7.42"/><rect x="357.87" y="48.13" width="7.42" height="7.42"/><rect x="334.61" y="36.04" width="7.42" height="7.42"/><rect x="346.11" y="36.04" width="7.42" height="7.42"/><rect x="334.61" y="71.98" width="7.42" height="7.42"/><rect x="346.11" y="71.98" width="7.42" height="7.42"/><rect x="334.61" y="12.34" width="7.42" height="7.42"/><rect x="346.11" y="60.42" width="7.42" height="7.42"/><rect x="335.2" y="48.76" width="7.42" height="7.42"/><rect x="344.7" y="-.25" width="7.42" height="7.42"/><rect x="381.91" y="36.04" width="7.42" height="7.42"/><rect x="370.4" y="36.04" width="7.42" height="7.42"/><rect x="381.91" y="71.98" width="7.42" height="7.42"/><rect x="370.4" y="71.98" width="7.42" height="7.42"/><rect x="381.91" y="12.34" width="7.42" height="7.42"/><rect x="370.4" y="60.42" width="7.42" height="7.42"/><rect x="381.31" y="48.76" width="7.42" height="7.42"/><rect x="371.82" y="-.25" width="7.42" height="7.42"/><rect x="357.87" y="60.42" width="7.42" height="7.42"/><rect x="357.87" y="71.98" width="7.42" height="7.42"/></svg>