<?xml version="1.0" encoding="UTF-8"?><svg id="_レイヤー_2" xmlns="http://www.w3.org/2000/svg" viewBox="0 0 359.92 140.8"><defs><style>.cls-1{fill:#ffffff;}</style></defs><g id="_レイヤー_1-2"><path class="cls-1" d="M87.62,16.99c.25.88.42,1.63.5,2.24.08.61.13,1.25.13,1.93,0,1.89-.53,3.68-1.58,5.37-1.05,1.68-2.55,3.18-4.48,4.48-1.94,1.31-4.32,2.34-7.14,3.09-2.82.76-6,1.14-9.53,1.14-3.12,0-5.87-.28-8.27-.85-2.4-.57-4.42-1.33-6.06-2.27-1.64-.95-2.88-2.04-3.73-3.28-.84-1.24-1.26-2.56-1.26-3.95,0-1.85.71-3.75,2.15-5.68,1.43-1.94,3.45-3.81,6.06-5.62,2.61-1.81,5.79-3.51,9.53-5.11,3.75-1.6,7.96-3,12.63-4.2,4.67-1.2,9.72-2.15,15.15-2.84,5.43-.69,11.18-1.04,17.24-1.04,4.88,0,9.39.23,13.51.69,4.12.46,7.7,1.12,10.73,1.96,3.37-.93,6.46-1.61,9.28-2.05,2.82-.44,5.58-.77,8.27-.98v.76c-2.7.21-5.3.52-7.83.92-2.53.4-5.14,1.04-7.83,1.93,2.73,1.1,4.81,2.24,6.22,3.44,1.41,1.2,2.12,2.68,2.12,4.45,0,1.6-.72,3.05-2.15,4.36-1.43,1.31-3.29,2.43-5.56,3.38-2.28.95-4.85,1.74-7.71,2.37-2.86.63-5.73,1.07-8.6,1.33v.13c2.43.04,4.69.24,6.78.6,2.09.36,3.91.86,5.46,1.52,1.55.65,2.76,1.47,3.64,2.46.88.99,1.32,2.16,1.32,3.5,0,2.06-.97,3.99-2.9,5.78-1.94,1.79-4.38,3.35-7.32,4.67-2.95,1.33-6.23,2.37-9.85,3.13-3.62.76-7.16,1.14-10.61,1.14-4.8,0-8.65-.52-11.56-1.55-2.9-1.03-4.36-2.35-4.36-3.95,0-1.05.65-1.96,1.97-2.71,1.31-.76,3.07-1.14,5.28-1.14,1.36,0,2.54.25,3.56.76-1.46.13-2.49.54-3.09,1.23-.6.69-.9,1.57-.9,2.62,0,1.14.84,2.08,2.53,2.84,1.68.76,3.83,1.14,6.44,1.14,3.87,0,7.26-.41,10.17-1.23,2.9-.82,5.32-1.9,7.26-3.25,1.94-1.35,3.39-2.88,4.36-4.61.97-1.73,1.45-3.49,1.45-5.3,0-1.35-.46-2.47-1.39-3.38-.93-.9-2.19-1.63-3.79-2.18-1.6-.55-3.47-.93-5.62-1.14-2.15-.21-4.44-.32-6.88-.32v-.76c3.79,0,7.22-.32,10.29-.95,3.07-.63,5.7-1.52,7.89-2.65,2.19-1.14,3.89-2.48,5.11-4.04,1.22-1.56,1.83-3.24,1.83-5.05,0-.97-.38-1.92-1.14-2.84-.76-.93-1.81-1.75-3.16-2.46-4.04,1.77-7.85,4.02-11.43,6.76-3.58,2.74-7.16,5.64-10.73,8.71-3.58,3.07-7.24,6.15-10.99,9.22-3.75,3.07-7.79,5.85-12.12,8.33-4.34,2.48-9.07,4.5-14.21,6.06-5.14,1.56-10.86,2.34-17.17,2.34-4.38,0-7.83-.46-10.36-1.39-2.53-.93-3.79-2.04-3.79-3.35,0-.84.48-1.5,1.45-1.99s2.17-.73,3.6-.73,2.5.22,3.22.66c.71.44,1.07,1,1.07,1.67,0,.59-.4,1.08-1.2,1.48-.8.4-1.79.6-2.97.6.17.42.59.78,1.26,1.07.67.29,1.45.54,2.34.73.88.19,1.79.32,2.72.38.93.06,1.72.09,2.4.09,4.21,0,7.91-.4,11.11-1.2,3.2-.8,6.21-1.95,9.03-3.44,2.82-1.49,5.6-3.3,8.33-5.43,2.73-2.13,5.7-4.51,8.9-7.17,3.37-2.74,6.5-5.31,9.41-7.73,2.9-2.42,5.83-4.66,8.78-6.72,2.95-2.06,6-3.94,9.16-5.62,3.16-1.68,6.63-3.11,10.42-4.29-2.7-1.09-5.98-1.84-9.85-2.24-3.87-.4-7.96-.6-12.25-.6-7.83,0-15.24.66-22.23,1.99-6.99,1.33-13.09,3.07-18.31,5.24-5.22,2.17-9.37,4.65-12.44,7.45-3.07,2.8-4.61,5.69-4.61,8.68,0,1.14.29,2.3.88,3.5.59,1.2,1.49,2.27,2.71,3.22,1.22.95,2.76,1.73,4.61,2.34,1.85.61,4.04.92,6.57.92,3.11,0,5.98-.34,8.59-1.01,2.61-.67,4.84-1.6,6.69-2.78,1.85-1.18,3.3-2.6,4.36-4.26,1.05-1.66,1.58-3.46,1.58-5.4,0-.67-.04-1.34-.13-1.99-.08-.65-.21-1.32-.38-1.99l1.39-.06Z"/><path class="cls-1" d="M140.42,25.41l-.99-.49v-2.71l.99-.49h5.43l.99.49v2.71l-.99.49h-5.43ZM140.42,31.58l-.99-.49v-2.71l.99-.49h5.43l.99.49v2.71l-.99.49h-5.43ZM140.42,37.8l-.99-.55v-2.65l.99-.56h5.43l.99.56v2.65l-.99.55h-5.43ZM152.75,19.24l-.99-.49v-2.71l.99-.49h5.43l.99.49v2.71l-.99.49h-5.43ZM152.75,43.97l-.99-.49v-2.71l.99-.49h5.43l.99.49v2.71l-.99.49h-5.43ZM165.08,19.24l-.86-.49v-2.71l.86-.49h5.55l.86.49v2.71l-.86.49h-5.55ZM165.08,43.97l-.86-.49v-2.71l.86-.49h5.55l.86.49v2.71l-.86.49h-5.55ZM177.54,19.24l-.99-.49v-2.71l.99-.49h5.43l.99.49v2.71l-.99.49h-5.43ZM177.54,43.97l-.99-.49v-2.71l.99-.49h5.43l.99.49v2.71l-.99.49h-5.43ZM189.87,25.41l-.99-.49v-2.71l.99-.49h5.43l.99.49v2.71l-.99.49h-5.43ZM189.87,31.58l-.99-.49v-2.71l.99-.49h5.43l.99.49v2.71l-.99.49h-5.43ZM189.87,37.8l-.99-.55v-2.65l.99-.56h5.43l.99.56v2.65l-.99.55h-5.43Z"/><path class="cls-1" d="M214.31,23.62l-12.15,11.68.19.13c.89-.72,2.02-1.55,3.4-2.49,1.37-.95,2.87-1.92,4.5-2.9,1.63-.99,3.33-1.97,5.12-2.94,1.79-.97,3.54-1.83,5.26-2.59.32-.42.67-.76,1.05-1.01.38-.25,1.15-.38,2.3-.38.7,0,1.32.01,1.87.03.54.02,1.1.05,1.67.09-1.09.72-2.14,1.59-3.16,2.62-1.02,1.03-1.53,2.16-1.53,3.38,0,.97.37,1.73,1.1,2.27.73.55,1.64.82,2.73.82.96,0,1.9-.13,2.82-.38.92-.25,1.8-.57,2.63-.95.83-.38,1.63-.78,2.39-1.2.77-.42,1.44-.8,2.01-1.14l.57.25c-.64.42-1.37.87-2.2,1.36-.83.48-1.72.94-2.68,1.36-.96.42-1.98.77-3.06,1.04-1.08.27-2.2.41-3.35.41-2.04,0-3.68-.41-4.93-1.23-1.24-.82-1.87-1.97-1.87-3.44,0-1.01.35-1.92,1.05-2.72l-.19-.13c-2.62,1.18-5.49,2.73-8.61,4.64-3.13,1.92-6.44,4.18-9.95,6.79-1.28.93-2.6,2.15-3.97,3.66-1.37,1.52-2.57,3.07-3.59,4.67h-6.22c3.44-3.62,6.89-7.22,10.33-10.8,3.44-3.58,6.98-7.22,10.62-10.92h5.84Z"/><path class="cls-1" d="M242.82,23.62c-3.51,3.33-6.47,6.12-8.9,8.4-2.42,2.27-4.39,4.17-5.88,5.68-1.5,1.52-2.58,2.71-3.25,3.6-.67.88-1,1.6-1,2.15,0,1.09.67,1.64,2.01,1.64s2.76-.31,4.45-.92c1.69-.61,3.46-1.4,5.31-2.37,1.85-.97,3.7-2.06,5.55-3.28,1.85-1.22,3.59-2.43,5.21-3.63,1.63-1.2,3.06-2.36,4.3-3.47,1.24-1.11,2.15-2.03,2.73-2.75l.77.32c-.77.84-1.8,1.85-3.11,3.03-1.31,1.18-2.79,2.39-4.45,3.63-1.66,1.24-3.41,2.47-5.26,3.69-1.85,1.22-3.73,2.32-5.64,3.28-1.91.97-3.78,1.75-5.6,2.34-1.82.59-3.49.88-5.02.88-1.72,0-3-.32-3.83-.95s-1.24-1.33-1.24-2.08c0-.88.3-1.82.91-2.81.61-.99,1.58-2.2,2.92-3.63,1.34-1.43,3.08-3.17,5.21-5.21,2.14-2.04,4.7-4.56,7.7-7.55h6.12ZM248.37,11.87c.89,0,1.63.2,2.2.6.57.4.86.9.86,1.48s-.29,1.08-.86,1.48c-.57.4-1.31.6-2.2.6s-1.63-.2-2.2-.6c-.57-.4-.86-.89-.86-1.48s.29-1.08.86-1.48c.57-.4,1.31-.6,2.2-.6Z"/><path class="cls-1" d="M265.34,23.62l-16.67,11.55.25.13c1.77-1.05,3.83-2.28,6.19-3.69,2.36-1.41,4.88-2.75,7.58-4.01,2.69-1.26,5.49-2.33,8.4-3.19,2.9-.86,5.79-1.29,8.65-1.29,2.53,0,4.48.35,5.87,1.04,1.39.69,2.08,1.59,2.08,2.68,0,.67-.49,1.47-1.45,2.4-.97.93-2.17,1.92-3.6,2.97-1.43,1.05-2.99,2.13-4.67,3.22-1.68,1.09-3.24,2.14-4.67,3.13-1.43.99-2.63,1.89-3.6,2.71-.97.82-1.45,1.51-1.45,2.05,0,1.18,1.18,1.77,3.54,1.77,2.69,0,5.56-.45,8.59-1.36,3.03-.9,6.65-2.43,10.86-4.58,1.68-.84,3.39-1.77,5.12-2.78,1.72-1.01,3.39-2.01,4.99-3,1.6-.99,3.05-1.93,4.36-2.81,1.3-.88,2.34-1.62,3.09-2.21l.88.25c-1.68,1.26-3.85,2.77-6.5,4.51-2.65,1.75-5.54,3.46-8.65,5.15-1.85,1.01-3.75,1.98-5.68,2.9-1.94.93-3.87,1.74-5.81,2.43-1.94.69-3.85,1.24-5.75,1.64s-3.77.6-5.62.6c-2.44,0-4.46-.34-6.06-1.01-1.6-.67-2.4-1.6-2.4-2.78,0-1.26,1.01-2.64,3.03-4.14,2.02-1.49,4.25-3,6.69-4.51,2.44-1.52,4.67-2.97,6.69-4.36s3.03-2.61,3.03-3.66c0-.51-.34-.88-1.01-1.14-.67-.25-1.56-.38-2.65-.38-2.11,0-4.46.39-7.07,1.17-2.61.78-5.28,1.81-8.02,3.09-2.74,1.28-5.47,2.71-8.21,4.29-2.74,1.58-5.28,3.16-7.64,4.74-2.36,1.58-4.46,3.09-6.31,4.55-1.85,1.45-3.24,2.66-4.17,3.63h-7.83c2.19-1.85,4.53-3.74,7.01-5.65,2.48-1.91,4.95-3.81,7.39-5.68,2.44-1.87,4.78-3.68,7.01-5.43,2.23-1.75,4.23-3.34,6-4.77l8.21-.19Z"/><path class="cls-1" d="M345.9,23.62c-5.05,3.41-9.83,6.88-14.33,10.42-4.5,3.54-9.16,7.05-13.95,10.54,4.21-.46,8.35-1.22,12.44-2.27,4.08-1.05,7.93-2.31,11.55-3.79,3.62-1.47,6.96-3.09,10.04-4.86,3.07-1.77,5.66-3.56,7.77-5.37l.5.38c-3.71,3.16-7.77,5.79-12.19,7.89-4.42,2.11-8.69,3.79-12.82,5.05-4.13,1.26-7.83,2.18-11.11,2.75-3.28.57-5.64.89-7.07.98-.42.13-1.26.67-2.53,1.64-1.26.97-2.95,2.15-5.05,3.54-2.11,1.39-4.61,2.86-7.51,4.42-2.9,1.56-6.19,3-9.85,4.33-3.66,1.33-7.72,2.43-12.19,3.31-4.46.88-9.26,1.33-14.4,1.33-3.03,0-5.85-.17-8.46-.5-2.61-.34-4.86-.82-6.76-1.45-1.89-.63-3.37-1.39-4.42-2.27-1.05-.88-1.58-1.87-1.58-2.97,0-1.81,1.31-3.31,3.92-4.51,2.61-1.2,5.89-1.8,9.85-1.8.84,0,1.54.02,2.08.06.55.04,1.12.1,1.71.19v.51h-1.01c-3.28,0-5.72.52-7.32,1.55-1.6,1.03-2.4,2.41-2.4,4.14,0,1.14.4,2.1,1.2,2.9.8.8,1.89,1.45,3.28,1.96,1.39.51,3.01.87,4.86,1.1,1.85.23,3.87.35,6.06.35,3.71,0,7.35-.43,10.92-1.29,3.58-.86,7.01-2,10.29-3.41,3.28-1.41,6.42-3,9.41-4.77,2.99-1.77,5.81-3.55,8.46-5.34,2.65-1.79,5.07-3.51,7.26-5.18,2.19-1.66,4.12-3.08,5.81-4.26l-.25-.13c-1.35.8-2.84,1.61-4.48,2.43s-3.39,1.58-5.24,2.27c-1.85.69-3.79,1.26-5.81,1.71s-4.13.66-6.31.66c-1.6,0-2.99-.15-4.17-.44-1.18-.29-2.15-.68-2.91-1.17-.76-.48-1.3-1.02-1.64-1.61-.33-.59-.5-1.16-.5-1.7,0-1.3.57-2.65,1.71-4.04s2.63-2.75,4.48-4.07c1.85-1.33,4-2.57,6.44-3.73,2.44-1.16,4.99-2.18,7.64-3.06,2.65-.88,5.32-1.59,8.02-2.12,2.69-.53,5.18-.79,7.45-.79,3.28,0,5.66.41,7.13,1.23,1.47.82,2.21,1.78,2.21,2.87h.38l4.67-3.6h8.71ZM322.54,23.87c-2.78,0-5.79.58-9.03,1.74-3.24,1.16-6.27,2.6-9.09,4.33-2.82,1.73-5.16,3.6-7.01,5.62-1.85,2.02-2.78,3.92-2.78,5.68,0,.93.48,1.67,1.45,2.24.97.57,2.21.85,3.73.85,1.18,0,2.71-.24,4.61-.73,1.89-.48,3.87-1.16,5.94-2.02,2.06-.86,4.15-1.87,6.25-3.03,2.1-1.16,3.98-2.39,5.62-3.69,1.64-1.3,2.99-2.66,4.04-4.07,1.05-1.41,1.58-2.81,1.58-4.2,0-.72-.4-1.35-1.2-1.89-.8-.55-2.17-.82-4.1-.82Z"/><path class="cls-1" d="M78.17,67.35c-4.46,3.41-9.09,6.76-13.89,10.04s-9.39,6.65-13.77,10.1l.25.13c1.26-.84,2.73-1.76,4.42-2.75,1.68-.99,3.49-1.92,5.43-2.78,1.94-.86,4.04-1.58,6.31-2.15s4.59-.85,6.95-.85c2.69,0,4.97.36,6.82,1.07,1.85.72,2.78,1.96,2.78,3.73,0,1.09-.3,2.14-.88,3.12-.59.99-1.37,1.92-2.34,2.78-.97.86-2.06,1.66-3.28,2.4-1.22.74-2.46,1.42-3.73,2.05l.25.13c6.06-.55,11.55-1.58,16.48-3.09,4.92-1.52,9.83-3.79,14.71-6.82l1.01.25c-3.79,2.32-7.32,4.13-10.61,5.43-3.28,1.31-6.31,2.28-9.09,2.94-2.78.65-5.35,1.11-7.7,1.36-2.36.25-4.59.5-6.69.76-1.43.55-3.05,1.2-4.86,1.96-1.81.76-3.73,1.48-5.75,2.18-2.02.69-4.13,1.28-6.31,1.77-2.19.48-4.42.73-6.69.73-1.18,0-2.34-.16-3.47-.47-1.14-.32-1.71-.83-1.71-1.55,0-.88.86-1.62,2.59-2.21,1.72-.59,3.83-1.06,6.31-1.42,2.48-.36,5.07-.63,7.77-.82,2.69-.19,4.97-.33,6.82-.41,1.09-.63,2.21-1.4,3.35-2.3,1.14-.91,2.17-1.86,3.09-2.87.93-1.01,1.68-2.05,2.27-3.13.59-1.07.88-2.07.88-3,0-1.47-.42-2.43-1.26-2.87-.84-.44-1.85-.66-3.03-.66-1.94,0-3.98.35-6.12,1.04-2.15.7-4.32,1.6-6.5,2.72-2.19,1.12-4.36,2.36-6.5,3.72-2.15,1.37-4.15,2.73-6,4.07-1.85,1.35-3.54,2.6-5.05,3.76-1.52,1.16-2.78,2.07-3.79,2.75-.76.55-1.85,1.35-3.28,2.4s-3.03,2.25-4.8,3.6c-1.77,1.35-3.64,2.8-5.62,4.36-1.98,1.56-3.93,3.13-5.87,4.7-1.94,1.58-3.79,3.1-5.56,4.58-1.77,1.47-3.32,2.8-4.67,3.98H0c11.37-9.13,22.96-18.2,34.79-27.18,11.83-8.99,23.51-18.07,35.04-27.25h8.33ZM49.76,101.07c1.26,0,2.67-.21,4.23-.63,1.56-.42,3.07-.93,4.55-1.52,1.47-.59,2.8-1.18,3.98-1.77,1.18-.59,2.02-1.03,2.53-1.33l-.25-.13c-1.43.13-3.22.26-5.37.41-2.15.15-4.21.35-6.19.6-1.98.25-3.66.6-5.05,1.04-1.39.44-2.08,1.04-2.08,1.8,0,.5.38.88,1.14,1.14.76.25,1.6.38,2.53.38Z"/><path class="cls-1" d="M111.38,79.6l-16.04,11.68.25.13c1.18-.71,2.67-1.55,4.48-2.49,1.81-.95,3.79-1.92,5.94-2.9,2.15-.99,4.4-1.97,6.76-2.94,2.36-.97,4.67-1.83,6.95-2.59.42-.42.88-.76,1.39-1.01.5-.25,1.52-.38,3.03-.38.93,0,1.75.01,2.46.03.71.02,1.45.05,2.21.09-1.43.72-2.82,1.59-4.17,2.62-1.35,1.03-2.02,2.16-2.02,3.38,0,.97.48,1.73,1.45,2.27.97.55,2.17.82,3.6.82,1.26,0,2.5-.13,3.73-.38,1.22-.25,2.38-.57,3.47-.95,1.09-.38,2.15-.78,3.16-1.2s1.89-.8,2.65-1.14l.76.25c-.84.42-1.81.87-2.9,1.36-1.1.48-2.27.94-3.54,1.36-1.26.42-2.61.77-4.04,1.04-1.43.27-2.9.41-4.42.41-2.7,0-4.86-.41-6.5-1.23-1.64-.82-2.46-1.97-2.46-3.44,0-1.01.46-1.92,1.39-2.71l-.25-.13c-3.45,1.18-7.24,2.73-11.37,4.64-4.13,1.92-8.5,4.18-13.13,6.79-1.69.93-3.43,2.15-5.24,3.66-1.81,1.51-3.39,3.07-4.74,4.67h-8.21c4.55-3.62,9.09-7.22,13.64-10.8,4.55-3.58,9.22-7.22,14.02-10.92h7.7Z"/><path class="cls-1" d="M136.27,81.39l-.99-.49v-2.71l.99-.49h5.43l.99.49v2.71l-.99.49h-5.43ZM136.27,87.56l-.99-.49v-2.71l.99-.49h5.43l.99.49v2.71l-.99.49h-5.43ZM136.27,93.79l-.99-.55v-2.65l.99-.56h5.43l.99.56v2.65l-.99.55h-5.43ZM148.6,75.23l-.99-.49v-2.71l.99-.49h5.43l.99.49v2.71l-.99.49h-5.43ZM148.6,99.95l-.99-.49v-2.71l.99-.49h5.43l.99.49v2.71l-.99.49h-5.43ZM160.93,75.23l-.86-.49v-2.71l.86-.49h5.55l.86.49v2.71l-.86.49h-5.55ZM160.93,99.95l-.86-.49v-2.71l.86-.49h5.55l.86.49v2.71l-.86.49h-5.55ZM173.39,75.23l-.99-.49v-2.71l.99-.49h5.43l.99.49v2.71l-.99.49h-5.43ZM173.39,99.95l-.99-.49v-2.71l.99-.49h5.43l.99.49v2.71l-.99.49h-5.43ZM185.72,81.39l-.99-.49v-2.71l.99-.49h5.43l.99.49v2.71l-.99.49h-5.43ZM185.72,87.56l-.99-.49v-2.71l.99-.49h5.43l.99.49v2.71l-.99.49h-5.43ZM185.72,93.79l-.99-.55v-2.65l.99-.56h5.43l.99.56v2.65l-.99.55h-5.43Z"/><path class="cls-1" d="M246.38,85.47c-1.94,1.56-4.48,3.23-7.64,5.02s-6.59,3.46-10.29,5.02c-4.55,1.89-9.09,3.42-13.64,4.58-4.55,1.16-9.01,1.74-13.39,1.74-3.12,0-5.73-.41-7.83-1.23-2.11-.82-3.16-2.03-3.16-3.63,0-2.02,1.16-4.08,3.47-6.19,2.31-2.1,5.22-4.03,8.71-5.78,3.49-1.75,7.32-3.17,11.49-4.26,4.17-1.09,8.1-1.64,11.81-1.64,2.44,0,4.57.22,6.38.66,1.81.44,2.71,1.21,2.71,2.3,0,.5-.27.93-.82,1.26-.55.34-1.22.61-2.02.82-.8.21-1.68.37-2.65.47-.97.11-1.83.18-2.59.22.33-.42.63-.85.88-1.29.25-.44.38-.89.38-1.36,0-1.56-1.47-2.34-4.42-2.34-2.19,0-4.78.54-7.77,1.61-2.99,1.07-5.81,2.43-8.46,4.07-2.65,1.64-4.91,3.45-6.76,5.43-1.85,1.98-2.78,3.89-2.78,5.75,0,1.14.52,2.11,1.58,2.91,1.05.8,2.67,1.2,4.86,1.2,2.95,0,6.33-.48,10.17-1.45,3.83-.97,7.55-2.17,11.18-3.6,3.79-1.47,7.43-3.17,10.92-5.08,3.49-1.92,6.42-3.78,8.78-5.59l.88.38Z"/><path class="cls-1" d="M283.63,84.97c-1.26,1.05-2.84,2.21-4.74,3.47-1.89,1.26-4.04,2.52-6.44,3.76-2.4,1.24-4.97,2.44-7.7,3.6-2.74,1.16-5.58,2.19-8.52,3.09-2.95.91-5.92,1.62-8.9,2.15-2.99.53-5.92.79-8.78.79-3.54,0-6.27-.45-8.21-1.36-1.94-.9-2.9-2.2-2.9-3.88,0-1.85,1.12-3.8,3.35-5.84,2.23-2.04,5.07-3.92,8.52-5.65s7.24-3.16,11.37-4.29c4.12-1.14,8.08-1.71,11.87-1.71,2.1,0,3.75.22,4.93.66,1.18.44,1.77,1.08,1.77,1.93,0,1.01-1.09,1.99-3.28,2.94-2.19.95-4.86,1.81-8.02,2.59-3.16.78-6.55,1.47-10.17,2.08-3.62.61-6.82,1.06-9.6,1.36-.93.84-1.69,1.79-2.27,2.84-.59,1.05-.88,2.11-.88,3.16,0,.5.1,1,.32,1.48.21.48.55.93,1.01,1.33.46.4,1.09.73,1.89.98.8.25,1.79.38,2.97.38,2.78,0,6.04-.45,9.79-1.36,3.75-.91,7.56-2.12,11.43-3.63,3.87-1.52,7.58-3.24,11.11-5.18,3.54-1.94,6.57-3.94,9.09-6l1.01.32ZM263.17,81.62c0-.59-.32-1.03-.95-1.33-.63-.29-1.41-.44-2.34-.44-1.77,0-3.68.35-5.75,1.04-2.06.69-4.1,1.56-6.12,2.59s-3.85,2.14-5.49,3.31c-1.64,1.18-2.88,2.23-3.73,3.16,1.85-.17,4.17-.49,6.95-.98,2.78-.48,5.45-1.08,8.02-1.8,2.57-.71,4.78-1.55,6.63-2.49,1.85-.95,2.78-1.97,2.78-3.06Z"/><path class="cls-1" d="M319.62,85.03c-2.53,2.02-5.45,4.03-8.78,6.03-3.33,2-6.97,3.8-10.92,5.4-3.96,1.6-8.27,2.89-12.94,3.88-4.67.99-9.66,1.48-14.96,1.48-2.02,0-3.92-.13-5.68-.38-1.77-.25-3.3-.63-4.61-1.14-1.3-.51-2.36-1.15-3.16-1.93-.8-.78-1.2-1.69-1.2-2.75s.72-2.08,2.15-2.97c1.43-.88,3.37-1.33,5.81-1.33,1.26,0,2.29.16,3.09.47.8.32,1.2.79,1.2,1.42,0,.59-.3,1.1-.88,1.52-.59.42-1.47.63-2.65.63-.93,0-1.66-.13-2.21-.38-.55-.25-.91-.57-1.07-.95-.93.25-1.56.62-1.89,1.1-.34.48-.5.98-.5,1.48,0,1.47,1.12,2.58,3.35,3.31,2.23.74,4.74,1.11,7.51,1.11,1.77,0,3.3-.18,4.61-.54,1.3-.36,2.4-.82,3.28-1.39.88-.57,1.54-1.23,1.96-1.99.42-.76.63-1.52.63-2.27,0-.8-.27-1.63-.82-2.49-.55-.86-1.16-1.71-1.83-2.56-.67-.84-1.31-1.67-1.89-2.49-.59-.82-.88-1.59-.88-2.3,0-.93.38-1.76,1.14-2.49s1.79-1.36,3.09-1.86c1.3-.5,2.8-.89,4.48-1.17,1.68-.27,3.45-.41,5.3-.41,3.37,0,6.1.37,8.21,1.1,2.1.74,3.16,1.72,3.16,2.94,0,1.09-.82,1.89-2.46,2.4s-3.47.76-5.49.76c.5-.46.95-1.02,1.33-1.67.38-.65.57-1.25.57-1.8,0-.84-.53-1.55-1.58-2.12-1.05-.57-2.55-.85-4.48-.85-2.44,0-4.25.37-5.43,1.1-1.18.74-1.77,1.63-1.77,2.68,0,.93.32,1.81.95,2.65.63.84,1.37,1.68,2.21,2.53.76.84,1.45,1.71,2.08,2.59.63.88.95,1.87.95,2.97,0,.8-.36,1.57-1.07,2.3-.72.74-1.66,1.41-2.84,2.02-1.18.61-2.51,1.13-3.98,1.55-1.47.42-2.97.69-4.48.82l.25.13c4.55-.25,8.88-.92,13.01-1.99,4.12-1.07,7.98-2.38,11.55-3.92,3.58-1.54,6.88-3.22,9.91-5.05,3.03-1.83,5.68-3.63,7.96-5.4l.76.19Z"/><path class="cls-1" d="M355.99,85.03c-2.53,2.02-5.45,4.03-8.78,6.03-3.33,2-6.97,3.8-10.92,5.4-3.96,1.6-8.27,2.89-12.94,3.88-4.67.99-9.66,1.48-14.96,1.48-2.02,0-3.92-.13-5.68-.38-1.77-.25-3.31-.63-4.61-1.14-1.3-.51-2.36-1.15-3.16-1.93-.8-.78-1.2-1.69-1.2-2.75s.72-2.08,2.15-2.97c1.43-.88,3.37-1.33,5.81-1.33,1.26,0,2.29.16,3.09.47.8.32,1.2.79,1.2,1.42,0,.59-.3,1.1-.88,1.52-.59.42-1.47.63-2.65.63-.93,0-1.66-.13-2.21-.38-.55-.25-.91-.57-1.07-.95-.93.25-1.56.62-1.89,1.1-.33.48-.5.98-.5,1.48,0,1.47,1.12,2.58,3.35,3.31,2.23.74,4.74,1.11,7.51,1.11,1.77,0,3.3-.18,4.61-.54,1.3-.36,2.4-.82,3.28-1.39.88-.57,1.54-1.23,1.96-1.99.42-.76.63-1.52.63-2.27,0-.8-.27-1.63-.82-2.49-.55-.86-1.16-1.71-1.83-2.56-.67-.84-1.31-1.67-1.89-2.49-.59-.82-.88-1.59-.88-2.3,0-.93.38-1.76,1.14-2.49.76-.74,1.79-1.36,3.09-1.86,1.3-.5,2.8-.89,4.48-1.17,1.68-.27,3.45-.41,5.3-.41,3.37,0,6.1.37,8.21,1.1,2.1.74,3.16,1.72,3.16,2.94,0,1.09-.82,1.89-2.46,2.4s-3.47.76-5.49.76c.5-.46.95-1.02,1.33-1.67.38-.65.57-1.25.57-1.8,0-.84-.53-1.55-1.58-2.12-1.05-.57-2.55-.85-4.48-.85-2.44,0-4.25.37-5.43,1.1-1.18.74-1.77,1.63-1.77,2.68,0,.93.32,1.81.95,2.65.63.84,1.37,1.68,2.21,2.53.76.84,1.45,1.71,2.08,2.59.63.88.95,1.87.95,2.97,0,.8-.36,1.57-1.07,2.3-.72.74-1.66,1.41-2.84,2.02-1.18.61-2.51,1.13-3.98,1.55-1.47.42-2.97.69-4.48.82l.25.13c4.55-.25,8.88-.92,13.01-1.99,4.12-1.07,7.98-2.38,11.56-3.92,3.58-1.54,6.88-3.22,9.91-5.05,3.03-1.83,5.68-3.63,7.96-5.4l.76.19Z"/><path class="cls-1" d="M100.53,130.26c-.05.22-.08.39-.09.5-.14.67-.4,1.98-.78,3.92-.39,1.93-.62,3.05-.71,3.34-.14.44-.29.78-.47,1.01s-.41.35-.69.35c-.31,0-.58-.11-.81-.32-.23-.21-.35-.5-.35-.86,0-.15.03-.31.08-.5.06-.18.15-.44.29-.77.47-1.07.86-2.07,1.18-2.99.32-.93.61-2,.87-3.23-.37.07-.72.11-1.07.11-.44,0-.83-.11-1.17-.32s-.71-.62-1.11-1.23c-.06-.1-.09-.17-.09-.22,0-.06.02-.09.07-.09.04,0,.08,0,.12.03s.1.04.16.06c.36.12.65.21.88.27.23.06.46.08.71.08.18,0,.44-.03.77-.09.42-.1.77-.2,1.05-.29.11-.7.2-1.31.26-1.82.02-.12.04-.27.04-.44,0-.41-.11-.75-.34-1.05-.23-.29-.56-.55-.99-.77-.07-.05-.11-.09-.11-.13,0-.05.09-.09.27-.13.18-.04.38-.05.6-.05s.46.03.73.08c.26.05.51.13.73.21.23.1.44.23.62.4.18.17.27.41.27.73,0,.11-.03.27-.09.48.1.07.28.19.53.35.17.1.33.16.47.19.14.03.23.05.27.06.37.09.64.18.81.29.17.1.26.26.26.47,0,.27-.22.58-.66.94-.66.58-1.49,1.06-2.47,1.46ZM100.91,128.33c.49-.31.74-.55.74-.74,0-.11-.03-.22-.1-.32-.07-.1-.18-.24-.34-.4l-.29,1.46ZM109.7,137.93c.09.11.13.25.13.42,0,.44-.2.75-.6.92-.4.17-.97.26-1.72.26-1.38,0-2.52-.26-3.43-.79-.91-.53-1.36-1.28-1.36-2.27,0-.53.13-1,.39-1.42.25-.41.42-.61.53-.61.05,0,.07.02.07.07,0,.04-.03.13-.09.29s-.1.29-.11.4c-.01.07-.02.17-.02.28,0,.27.06.53.17.78.12.25.31.47.58.65.21.15.54.28.99.4.45.12.96.17,1.52.17l.77-.04.68-.04c.81,0,1.31.17,1.49.52ZM109.96,129.33c.17.29.26.56.26.82,0,.29-.11.51-.32.65-.22.14-.51.22-.88.23-.49.02-.89.09-1.2.18-.6.2-1.03.37-1.27.52-.12.05-.19.07-.2.07-.06,0-.09-.02-.09-.07,0-.04,0-.06.02-.07.01-.05.04-.1.09-.15l.39-.37c.07-.06.22-.18.43-.37.21-.18.38-.35.51-.51.12-.15.18-.29.18-.4,0-.13-.09-.26-.28-.39-.29-.22-.62-.37-.99-.44-.36-.07-.7-.11-1-.11l-.55.02c-.15,0-.22-.04-.22-.11,0-.1.08-.17.24-.22.77-.31,1.5-.46,2.19-.46s1.35.16,1.95.48c.32.17.56.4.74.69Z"/><path class="cls-1" d="M118.88,138.55c-.45-.22-.92-.53-1.4-.94-1.24-1.08-1.86-2.89-1.86-5.44,0-.32.02-.76.07-1.33.05-.54.07-.93.07-1.16,0-1.12-.26-1.85-.79-2.19-.16-.11-.24-.18-.24-.22,0-.05.07-.09.2-.11.13-.02.28-.04.44-.04.7,0,1.3.18,1.8.55.5.37.75.85.75,1.46,0,.15-.03.34-.08.59-.06.25-.11.5-.18.76-.12.47-.22.88-.29,1.24s-.1.72-.1,1.08c0,.52.09,1.03.26,1.54s.39.93.65,1.25c.26.33.52.49.77.49.18,0,.3-.11.35-.33.37-1.24.65-2.08.85-2.51.05-.11.1-.21.16-.29.06-.08.1-.12.14-.12s.06.04.06.11c0,.12-.02.26-.07.41-.17.72-.26,1.33-.26,1.82s.07.9.22,1.22l.26.53c.14.26.23.46.28.59s.07.29.07.46c0,.27-.09.49-.27.65-.18.17-.4.25-.67.25-.33,0-.73-.11-1.18-.33ZM127.27,134.21c-.2-.2-.35-.49-.45-.87-.05-.16-.08-.29-.09-.41-.17-.71-.35-1.27-.53-1.68-.18-.41-.47-.71-.87-.92-.34-.17-.76-.26-1.23-.26l-.53.02c-.1,0-.15-.02-.15-.07,0-.07.07-.13.22-.17.45-.2.98-.29,1.58-.29.87,0,1.69.28,2.45.83.49.36.85.78,1.09,1.28.23.5.35.94.35,1.33,0,.43-.12.79-.36,1.07-.24.28-.49.42-.76.42s-.51-.1-.71-.29Z"/><path class="cls-1" d="M139.83,138.17c-.39-1.23-.73-2.13-1.02-2.71s-.62-1.12-.99-1.64c-.33-.46-.57-.81-.71-1.08-.14-.26-.21-.52-.21-.76,0-.22.06-.46.17-.72s.31-.59.58-1c.59-.9,1.02-1.6,1.3-2.12.28-.52.58-1.12.91-1.82.09-.23.13-.42.13-.57,0-.23-.06-.46-.19-.68-.13-.22-.29-.38-.47-.48-.05-.04-.12-.08-.22-.14-.1-.05-.15-.1-.15-.14,0-.05.06-.09.18-.12.12-.03.26-.05.42-.05.33,0,.7.06,1.11.17.41.12.78.29,1.12.53.45.29.68.68.68,1.14,0,.23-.06.44-.17.61-.15.27-.31.51-.48.71-.17.2-.48.53-.92.99l-.59.61c-.64.66-1.38,1.5-2.21,2.52-.14.17-.2.36-.2.55s.09.38.26.55c.82.76,1.51,1.44,2.07,2.04.56.6,1.06,1.29,1.51,2.06.45.77.67,1.54.67,2.3,0,.34-.09.62-.27.84-.18.21-.43.32-.75.32-.66,0-1.19-.64-1.58-1.93Z"/><path class="cls-1" d="M155.91,138.33c0-.11.09-.17.26-.18,1.47-.16,2.82-.57,4.03-1.23,1.21-.66,2.16-1.48,2.85-2.46.69-.98,1.03-1.98,1.03-3.01,0-.61-.13-1.14-.38-1.58-.25-.44-.58-.76-1-.99-.41-.22-.85-.33-1.32-.33-1.01,0-2.05.37-3.12,1.11-1.07.74-1.96,1.44-2.66,2.12-.33.29-.66.55-1,.77-.33.22-.66.33-1,.33-.82,0-1.6-.55-2.34-1.64-.15-.21-.22-.35-.22-.42,0-.1.06-.15.18-.15.09,0,.25.02.5.06s.48.06.7.06c.36,0,.73-.09,1.12-.27s.91-.45,1.55-.82c.72-.41,1.34-.73,1.86-.99s1.12-.47,1.81-.65,1.41-.28,2.17-.28c.93,0,1.79.2,2.57.59.78.39,1.4.95,1.85,1.67.45.72.68,1.54.68,2.48,0,.71-.23,1.49-.7,2.34s-1.43,1.63-2.89,2.35c-1.46.72-3.56,1.13-6.28,1.24-.17,0-.26-.04-.26-.13Z"/><path class="cls-1" d="M175.3,128.37c-.33.93-.82,2.25-1.46,3.93-.64,1.69-1.05,2.71-1.21,3.07-.14.29-.32.52-.54.67-.23.15-.45.23-.67.23-.29,0-.49-.14-.6-.42-.1-.28-.16-.68-.16-1.2,0-.22.03-.4.09-.53.06-.13.18-.3.37-.53l.41-.5c.9-1.27,1.64-2.71,2.23-4.35h-.09c-.69,0-1.22-.2-1.59-.6-.38-.4-.65-.8-.82-1.21-.06-.15-.09-.25-.09-.31,0-.05.02-.07.06-.07.05,0,.14.05.26.17.18.17.43.31.75.41.31.1.64.15.97.15.17,0,.5-.04.99-.13.05-.34.07-.6.07-.76,0-.58-.15-.97-.44-1.18-.12-.1-.26-.19-.41-.28-.15-.08-.22-.15-.22-.18,0-.06.06-.12.19-.17s.3-.07.51-.07c.29,0,.59.05.88.15.56.18.92.49,1.05.92h.41l.7-.07c.21-.04.36-.05.44-.05.23,0,.42.05.57.17.21.13.31.33.31.59,0,.2-.07.4-.22.6-.15.2-.31.36-.48.47-.58.39-1.33.75-2.25,1.09ZM179.67,130.21c-.21.36-.32.85-.32,1.49s.12,1.65.37,3l.13.81c1.08.25,1.91.57,2.49.96.26.17.45.37.59.58.13.21.2.43.2.64,0,.23-.07.44-.22.62s-.33.27-.55.27c-.21,0-.43-.06-.66-.18s-.54-.31-.92-.57c-.32-.2-.56-.34-.72-.42-.01.76-.3,1.37-.88,1.82-.57.45-1.27.68-2.09.68-.47,0-.92-.08-1.35-.25s-.79-.41-1.07-.75-.41-.72-.41-1.18c0-.79.37-1.39,1.1-1.81.73-.42,1.61-.64,2.63-.64h.22c0-1.23.02-2.12.06-2.67.05-.7.17-1.27.37-1.72.2-.45.5-.82.91-1.12.41-.3.97-.57,1.69-.82.18-.06.28-.16.28-.29,0-.28-.33-.68-.98-1.18-.02-.02-.06-.06-.11-.11-.05-.05-.07-.09-.07-.11,0-.06.07-.09.22-.09.16,0,.33.03.52.09.69.12,1.32.4,1.89.82.57.42.86.91.86,1.45,0,.32-.1.58-.29.78-.19.2-.42.3-.69.3-.2,0-.37-.04-.53-.11-.15-.07-.37-.21-.64-.41-.38-.27-.74-.41-1.07-.41-.41,0-.72.18-.93.54ZM177.85,138.11c.2-.32.31-.77.32-1.36-.48-.11-.92-.17-1.31-.17-.49,0-.92.07-1.28.22s-.54.39-.54.72.16.59.48.78.69.29,1.11.29c.61,0,1.02-.16,1.23-.48ZM175.87,126.04c0,.21-.02.43-.07.66l.22-.11c.25-.14.37-.26.37-.37,0-.09-.09-.17-.28-.24l-.24-.09v.15Z"/><path class="cls-1" d="M201.55,124.09c.06-.06.15-.16.26-.29.11-.14.2-.2.28-.2.11,0,.4.18.88.54s.76.64.88.82c.04.05.02.1-.04.17-.14.14-.32.22-.55.26v.98l.04.81c0,.22.01.54.04.96.02.06.01.12-.04.17-.13.12-.38.25-.73.38-.35.13-.65.19-.91.19h-.2c-.1,0-.15-.05-.15-.15v-.57h-6.04v1.88c0,1.46-.07,2.77-.2,3.93-.14,1.16-.45,2.33-.94,3.49-.49,1.17-1.24,2.21-2.25,3.11-.06.07-.12.09-.18.04-.09-.04-.1-.1-.04-.2.66-1.23,1.11-2.59,1.35-4.09.23-1.5.36-3.21.39-5.12l-.46.33-1.46,1.03v5.77c0,.53-.05.95-.16,1.27s-.32.58-.65.78c-.33.2-.82.34-1.47.41h-.04c-.06,0-.1-.04-.13-.13-.04-.64-.13-1.08-.29-1.33-.12-.16-.27-.29-.45-.4-.18-.1-.41-.19-.71-.27-.09-.01-.13-.06-.13-.15,0-.07.04-.11.11-.11l.96.04.64.04c.14,0,.23-.02.28-.06.05-.04.07-.13.07-.25v-4.31c-.52.33-.85.55-1.01.65-.04.18-.13.33-.29.42l-.07.02c-.06,0-.1-.03-.13-.09l-.74-2.16s-.02-.04-.02-.07c0-.06.04-.1.11-.11.47-.1,1.19-.28,2.16-.53v-3.61h-.64c-.29.01-.61.08-.94.2-.09.04-.15.01-.18-.07l-.29-.59s-.02-.05-.02-.09c0-.06.04-.09.13-.07.28.05.7.09,1.25.11h.7v-.7c0-1.4-.07-2.6-.22-3.59,0-.12.06-.17.17-.15.96.22,1.61.39,1.96.52.35.12.52.23.52.33,0,.05-.05.1-.15.17l-.31.2v3.22h.04l.77-1.36s.06-.08.1-.08c.04,0,.08,0,.1.05l.9,1.09v-.11c0-1.34-.07-2.53-.2-3.58v-.04c0-.1.05-.13.15-.09l2.25.87h5.58l.41-.5ZM191.46,128.37v3.08l1.92-.55v-2.52h-1.92ZM201.29,127.63v-2.51h-6.04v2.51h6.04ZM201.64,138.87c0-1.31-.07-2.48-.2-3.5v-.04c0-.1.05-.14.17-.11.85.2,1.43.35,1.75.47.32.12.48.21.48.29,0,.04-.04.08-.11.13l-.26.17v1.01c.04,1.13.07,1.98.11,2.56,0,.07-.02.13-.05.17-.11.13-.33.26-.65.38-.33.12-.63.17-.91.17-.21,0-.34-.09-.39-.28,0-.07,0-.14.02-.18.01-.04.02-.08.03-.13,0-.05.01-.11.03-.18v-.41h-4.42v.85c0,.07-.17.17-.52.29-.34.12-.65.18-.92.18-.29,0-.44-.12-.44-.37.04-.32.06-.65.07-.98l.02-.46v-.9c0-.96-.05-1.83-.15-2.62,0-.12.06-.17.18-.13.95.25,1.53.42,1.76.53.23.11.28.2.16.28l-.17.11v2.69h1.33v-5.34h-1.16v.55c0,.07-.15.17-.45.28-.3.11-.58.17-.82.17-.27,0-.41-.12-.41-.37.04-.29.06-.57.07-.83l.02-.39v-.81c0-.91-.04-1.67-.13-2.29,0-.12.06-.17.18-.13.86.23,1.39.41,1.58.53s.24.21.13.29l-.18.11v2.38h1.16v-.5c0-1.35-.07-2.55-.2-3.59v-.04c0-.1.05-.13.15-.11.83.2,1.42.35,1.74.47.33.12.49.22.49.3,0,.05-.04.1-.13.15l-.26.18v3.13h1.18c0-1.26-.06-2.32-.18-3.17,0-.12.06-.17.17-.15,1.41.33,2.12.58,2.12.76,0,.04-.04.09-.13.15l-.26.17v.77c.01.17.02.4.02.68.01.52.04.98.07,1.38,0,.07-.02.13-.06.17-.11.12-.32.24-.62.35-.3.11-.59.17-.86.17h-.13c-.1,0-.15-.05-.15-.15v-.61h-1.18v5.34h1.31Z"/><path class="cls-1" d="M206.18,124.29c.07-.04.14-.04.2,0,.9.31,1.56.69,1.98,1.16s.64.93.64,1.4c0,.33-.1.6-.29.82-.19.22-.42.32-.69.32s-.51-.1-.76-.29c-.05-.05-.07-.11-.07-.18-.04-.49-.15-1.01-.34-1.56-.19-.55-.42-1.04-.69-1.48-.04-.09-.03-.15.02-.18ZM213.4,128.51s.08-.12.14-.21c.05-.09.1-.16.15-.2.04-.04.09-.06.14-.06.1,0,.35.19.76.58.41.39.67.68.76.88.04.06.02.12-.04.18-.17.15-.37.24-.59.28v8.7c0,.66-.15,1.16-.46,1.48-.31.33-.89.52-1.75.58h-.04c-.07,0-.11-.04-.11-.13-.01-.41-.11-.76-.29-1.07-.18-.31-.57-.52-1.14-.65-.09-.01-.13-.06-.13-.15,0-.06.04-.09.11-.09l.63.02c.44.02.77.04.99.04.11,0,.19-.02.23-.06s.06-.1.06-.18v-3.02h-4.22v1.57c.04,1.26.07,2.24.11,2.93,0,.06-.02.12-.06.17-.11.15-.31.29-.6.42-.29.13-.62.19-.99.19-.16,0-.29-.04-.39-.11-.1-.07-.15-.16-.15-.26.05-.73.09-1.43.13-2.11.04-.68.06-1.58.07-2.68v-3.7c0-1.34-.07-2.53-.2-3.57v-.04s.01-.08.04-.1.06-.02.11,0l2.14.87h.9v-1.82c0-1.4-.07-2.6-.22-3.59,0-.12.06-.17.17-.15.93.21,1.58.38,1.93.5.35.12.52.23.52.31,0,.04-.04.09-.13.15l-.31.2v4.4h1.42l.29-.48ZM212.83,131.94v-2.41h-4.22v2.41h4.22ZM208.61,132.44v2.47h4.22v-2.47h-4.22ZM213.04,123.98s.07-.02.12,0l1.29.54c.72.2,1.09.36,1.09.5,0,.06-.07.12-.22.18l-.35.13c-.82,1.09-1.6,1.98-2.34,2.65-.05.05-.12.05-.2.02l-.04-.02c-.07-.04-.1-.1-.07-.18l.02-.09c.16-.54.3-1.15.42-1.82.12-.68.2-1.27.24-1.79,0-.05.02-.09.05-.11ZM216.37,128.7c0-1.39-.07-2.58-.22-3.59,0-.12.06-.17.17-.15.91.21,1.54.38,1.88.5.34.12.52.23.52.33,0,.05-.05.1-.15.17l-.31.2v5.6c.02,1.52.07,2.94.15,4.24,0,.05-.02.1-.05.17-.12.15-.35.28-.67.41s-.65.18-.97.18c-.16,0-.28-.04-.37-.11-.09-.07-.13-.16-.13-.26.09-1.07.14-2.25.17-3.54v-4.15ZM219.76,127.39c0-1.39-.07-2.59-.22-3.59,0-.12.06-.17.17-.15.95.22,1.59.39,1.94.52.35.12.53.23.53.31,0,.05-.04.1-.13.17l-.31.22v13.47c0,.53-.05.95-.17,1.27-.11.32-.34.58-.69.78-.35.2-.88.34-1.58.41h-.04c-.06,0-.1-.04-.13-.13-.06-.63-.19-1.07-.39-1.33-.14-.16-.31-.29-.53-.41s-.5-.2-.86-.28c-.09-.01-.13-.06-.13-.15,0-.07.04-.11.11-.11.31,0,.69.02,1.16.05l.87.04c.15,0,.25-.02.3-.07.06-.05.08-.13.08-.26v-10.78Z"/><path class="cls-1" d="M234.75,129.52c.36.52.53,1.31.53,2.35,0,.59-.08,1.31-.24,2.16-.16.85-.4,1.67-.71,2.48-.31.8-.69,1.43-1.12,1.87-.45.5-.87.75-1.25.75-.22,0-.42-.07-.61-.21-.18-.14-.31-.35-.39-.64-.18-.66-.49-1.29-.9-1.88-.12-.15-.18-.26-.18-.33,0-.04.02-.05.06-.05s.17.06.39.18c.05.04.22.14.52.29.39.21.68.31.87.31.41-.01.76-.37,1.06-1.06.3-.69.53-1.5.7-2.41s.25-1.65.25-2.2-.07-.93-.2-1.16c-.14-.23-.36-.35-.68-.35-.5,0-1.19.21-2.04.63-.63,2.7-1.55,5.08-2.78,7.13-.22.37-.46.65-.7.85-.25.2-.48.29-.7.29s-.4-.08-.53-.25c-.14-.17-.2-.38-.2-.65,0-.47.19-.95.57-1.46.75-1.01,1.33-1.91,1.75-2.7.42-.79.74-1.56.98-2.31-.48.29-.88.52-1.22.66s-.64.22-.92.22c-.25,0-.51-.1-.8-.31-.29-.21-.53-.48-.73-.82-.2-.34-.29-.7-.29-1.08,0-.06,0-.12.03-.17.02-.05.04-.07.06-.07.04,0,.09.03.17.08s.15.1.21.14c.18.12.37.2.56.24.19.04.43.05.71.05.88-.02,1.74-.17,2.56-.44.13-.81.2-1.42.2-1.82,0-.66-.13-1.15-.39-1.46-.17-.22-.36-.41-.55-.57-.2-.16-.29-.26-.29-.31,0-.07.07-.14.22-.19.15-.05.36-.08.63-.08.23,0,.47.03.72.07.25.05.45.12.61.2.57.26.85.67.85,1.23,0,.17-.02.38-.07.62-.05.24-.1.47-.17.69-.1.34-.16.59-.18.74l-.05.31c.75-.23,1.4-.35,1.95-.35.82,0,1.41.26,1.77.78ZM239.26,129.45c.73.37,1.26.81,1.58,1.32.33.51.49.99.49,1.43,0,.32-.08.61-.24.87-.16.26-.36.46-.6.59-.24.13-.47.2-.69.2-.14,0-.27-.03-.4-.09s-.27-.15-.41-.28c-.52-.44-1.25-.71-2.21-.79-.17-.01-.26-.04-.26-.09s.12-.1.35-.15l1.2-.18c.44-.06.73-.13.86-.19.13-.07.19-.19.19-.38,0-.58-.27-1.1-.82-1.57s-1.17-.82-1.87-1.05c-.14-.05-.2-.09-.2-.13s.08-.06.24-.06c1.13,0,2.06.18,2.79.55Z"/><path class="cls-1" d="M256.54,125.59c.31.14.57.32.78.54.21.22.31.45.31.7,0,.22-.07.41-.22.55-.15.15-.33.22-.55.22-.14,0-.39-.04-.76-.11-.18-.04-.39-.07-.62-.11s-.46-.06-.71-.06c-.36,0-.8.07-1.35.2-.55.17-1.05.63-1.48,1.38-.44.75-.78,1.61-1.02,2.58-.25.97-.37,1.84-.37,2.6s.06,1.4.18,1.83c.12.44.33.75.63.94s.71.29,1.25.29l.46-.04c.55-.04.86-.06.92-.06.53,0,.93.1,1.22.31.28.21.42.47.42.77,0,.7-.79,1.05-2.38,1.05s-2.69-.39-3.4-1.18c-.71-.79-1.06-2-1.06-3.63s.38-2.99,1.13-4.21c.75-1.22,1.72-2.19,2.88-2.9h-.26c-.45.02-1.07.19-1.86.5-.79.31-1.6.71-2.43,1.22-.31.18-.59.39-.85.61-.34.27-.63.47-.88.6-.24.13-.52.19-.86.19s-.63-.11-.94-.34c-.31-.23-.57-.5-.79-.83-.22-.33-.36-.62-.42-.88-.02-.15-.04-.23-.04-.26,0-.05.01-.09.04-.12.02-.03.06-.05.09-.05.06,0,.14.03.24.09.26.17.55.26.88.26.11,0,.24-.01.39-.04.18-.04.7-.2,1.55-.48,1.2-.41,2.32-.75,3.33-1.05s1.96-.51,2.82-.65c.29-.04.59-.1.88-.19.29-.09.47-.15.54-.17.31-.11.56-.19.76-.24.2-.05.39-.07.59-.07.31,0,.62.07.93.21Z"/><path class="cls-1" d="M266.28,138.55c-.45-.22-.92-.53-1.4-.94-1.24-1.08-1.86-2.89-1.86-5.44,0-.32.02-.76.07-1.33.05-.54.07-.93.07-1.16,0-1.12-.26-1.85-.79-2.19-.16-.11-.24-.18-.24-.22,0-.05.07-.09.2-.11.13-.02.28-.04.44-.04.7,0,1.3.18,1.8.55.5.37.75.85.75,1.46,0,.15-.03.34-.08.59-.05.25-.11.5-.17.76-.12.47-.22.88-.29,1.24-.07.36-.1.72-.1,1.08,0,.52.09,1.03.26,1.54s.39.93.64,1.25c.26.33.52.49.77.49.18,0,.3-.11.35-.33.37-1.24.65-2.08.85-2.51.05-.11.1-.21.16-.29.05-.08.1-.12.14-.12s.06.04.06.11c0,.12-.03.26-.07.41-.17.72-.26,1.33-.26,1.82s.07.9.22,1.22l.26.53c.13.26.23.46.28.59.05.13.07.29.07.46,0,.27-.09.49-.27.65-.18.17-.4.25-.67.25-.33,0-.72-.11-1.18-.33ZM274.67,134.21c-.2-.2-.35-.49-.45-.87-.05-.16-.08-.29-.09-.41-.17-.71-.35-1.27-.53-1.68-.18-.41-.47-.71-.87-.92-.34-.17-.76-.26-1.23-.26l-.53.02c-.1,0-.15-.02-.15-.07,0-.07.07-.13.22-.17.45-.2.98-.29,1.58-.29.87,0,1.69.28,2.45.83.49.36.85.78,1.09,1.28.23.5.35.94.35,1.33,0,.43-.12.79-.36,1.07s-.5.42-.76.42-.51-.1-.71-.29Z"/></g></svg>
